<?xml version="1.0" standalone="no"?>
<!DOCTYPE svg PUBLIC "-//W3C//DTD SVG 20010904//EN"
 "http://www.w3.org/TR/2001/REC-SVG-20010904/DTD/svg10.dtd">
<svg version="1.0" xmlns="http://www.w3.org/2000/svg"
 width="512.000000pt" height="512.000000pt" viewBox="0 0 512.000000 512.000000"
 preserveAspectRatio="xMidYMid meet">

<g transform="translate(0.000000,512.000000) scale(0.100000,-0.100000)"
fill="#000000" stroke="none">
<path d="M0 2560 l0 -2560 2560 0 2560 0 0 2560 0 2560 -2560 0 -2560 0 0
-2560z m2624 2441 c55 -36 70 -94 41 -151 -17 -33 -39 -39 -53 -14 -13 23 -98
16 -94 -8 4 -25 -21 -22 -47 6 -27 29 -36 83 -19 116 19 34 75 70 112 70 17 0
44 -9 60 -19z m145 -262 c54 -27 97 -42 116 -40 57 4 176 -19 224 -44 60 -30
105 -83 132 -155 17 -45 20 -70 16 -135 -3 -44 -8 -91 -11 -105 -4 -15 2 -8
14 15 11 22 20 50 20 63 0 31 16 20 40 -29 27 -53 28 -126 2 -175 -11 -22 -23
-50 -26 -64 -3 -14 -15 -40 -26 -59 -19 -29 -25 -33 -52 -27 -37 7 -34 5 -42
32 -5 17 1 26 29 45 19 13 35 27 35 30 0 4 -18 7 -41 7 -49 1 -50 2 -55 41 -3
23 0 29 11 25 10 -4 15 0 15 13 0 11 9 28 20 38 36 33 23 46 -17 19 -71 -49
-112 -53 -133 -14 -13 24 17 60 32 38 7 -9 8 -6 5 10 -3 12 -2 22 2 22 10 0
75 109 69 116 -3 2 -15 -10 -28 -28 -25 -37 -95 -91 -123 -95 -10 -2 -28 2
-40 8 -16 9 -22 9 -25 -1 -4 -10 -6 -9 -13 1 -4 7 -24 13 -45 12 l-36 -1 6 36
c3 21 9 55 13 77 5 22 6 58 3 80 -6 35 -7 37 -13 15 -3 -14 -9 -43 -12 -65 -4
-22 -16 -62 -27 -88 l-21 -48 -41 7 c-23 3 -45 8 -49 11 -5 3 -6 53 -3 111 l5
107 -14 -70 c-19 -89 -43 -143 -67 -151 -31 -9 -88 5 -94 24 -16 49 -50 114
-72 134 l-24 23 18 -40 c10 -22 24 -47 31 -55 7 -9 14 -31 15 -50 3 -34 2 -35
-42 -41 -25 -3 -60 -12 -78 -19 -42 -16 -70 -8 -126 35 -63 48 -69 44 -17 -9
l43 -44 -32 -17 c-32 -16 -63 -16 -105 0 -20 8 -20 8 0 -8 11 -8 18 -17 15
-19 -3 -3 -40 -27 -84 -54 -43 -27 -101 -72 -130 -101 -42 -42 -62 -54 -112
-67 -34 -9 -77 -16 -95 -17 -32 -1 -32 -2 -9 -9 14 -4 51 -8 83 -9 49 -1 57
-4 57 -20 0 -11 -7 -26 -15 -34 -17 -17 -97 -31 -126 -22 -15 5 -19 4 -15 -4
4 -6 16 -11 26 -11 32 0 50 -11 50 -31 0 -16 -7 -19 -40 -19 -23 0 -55 7 -71
16 -34 17 -63 75 -54 104 3 10 1 22 -6 25 -21 14 -49 90 -49 136 0 28 9 63 25
95 30 60 83 126 96 119 5 -4 9 -24 9 -46 0 -62 43 -125 107 -158 52 -26 57 -6
7 29 -55 39 -78 92 -76 177 1 88 26 151 85 211 90 93 204 129 462 142 211 12
254 16 168 19 -35 0 -63 6 -63 11 0 6 1 10 3 10 1 0 40 14 87 31 118 42 180
37 299 -22z m98 -483 c105 -35 186 -79 229 -127 14 -16 36 -79 63 -183 23 -88
40 -161 38 -162 -2 -2 -19 8 -38 22 -107 80 -259 125 -477 140 -181 12 -422
-40 -572 -123 -63 -36 -183 -143 -192 -173 -11 -33 -16 1 -23 142 -8 147 -8
148 20 203 47 97 203 204 373 255 130 40 209 50 344 45 110 -4 140 -9 235 -39z
m560 -270 c39 -25 93 -56 121 -70 111 -56 397 -142 601 -180 46 -9 85 -16 87
-16 2 0 4 -20 4 -44 0 -27 7 -52 19 -67 l19 -24 -60 -90 c-152 -231 -248 -505
-248 -711 0 -199 117 -530 274 -776 31 -48 56 -90 56 -93 0 -4 -14 -24 -32
-46 l-32 -39 -42 41 c-47 46 -89 55 -119 26 -28 -29 -65 -14 -65 25 0 18 -1
18 -27 -1 -18 -12 -62 -24 -126 -32 -66 -9 -94 -16 -87 -23 13 -13 13 -53 0
-61 -23 -14 -50 6 -50 37 0 25 -3 29 -17 23 -34 -13 -148 -44 -151 -40 -2 2
14 21 36 42 23 21 76 97 120 169 60 100 88 159 119 255 40 120 61 199 50 189
-3 -3 -19 -47 -36 -99 -48 -142 -143 -320 -231 -430 -82 -103 -212 -229 -245
-237 -11 -2 -40 -1 -64 3 l-44 8 44 29 c64 42 213 190 274 271 117 158 195
332 235 525 19 92 21 127 17 285 -5 159 -9 194 -36 300 -72 280 -261 560 -488
724 -22 16 -44 34 -47 39 -8 13 42 45 56 36 7 -5 9 -2 5 9 -4 11 -2 14 7 11
18 -7 31 15 18 28 -10 10 -5 48 7 48 4 0 39 -20 78 -44z m-1852 -103 c3 -16
16 -38 27 -50 17 -18 19 -25 9 -37 -15 -18 -5 -38 17 -35 50 5 53 -6 15 -47
-164 -174 -278 -382 -329 -601 -87 -374 -4 -789 214 -1079 67 -89 192 -212
267 -264 42 -29 46 -34 29 -41 -10 -4 -36 -8 -58 -8 -45 -1 -94 38 -215 172
-116 130 -188 250 -266 449 -22 54 -40 96 -42 95 -1 -2 9 -45 22 -95 39 -145
119 -300 214 -414 45 -54 81 -100 81 -102 0 -6 -120 22 -145 33 -11 6 -31 13
-45 17 l-25 7 24 -20 c16 -13 22 -26 18 -37 -10 -25 -36 -31 -55 -12 -14 14
-15 20 -4 37 8 12 12 22 10 24 -6 5 -136 25 -166 25 -20 0 -39 8 -49 20 -18
21 -39 28 -28 10 9 -15 -14 -40 -37 -40 -10 0 -22 10 -27 22 -5 14 -10 17 -15
10 -4 -7 -18 -12 -32 -12 -13 0 -32 -8 -42 -17 -63 -61 -59 -60 -95 -18 l-33
39 58 92 c130 208 244 503 266 694 12 100 -2 256 -32 362 -41 139 -181 422
-244 490 l-26 28 23 24 c13 14 25 43 29 72 l7 48 71 12 c154 26 467 120 561
169 32 17 39 14 48 -22z m1186 2 c24 -14 50 -25 57 -25 6 0 20 -8 31 -19 10
-10 26 -23 36 -28 12 -7 17 -25 18 -60 2 -43 7 -55 30 -73 15 -12 27 -27 27
-35 0 -7 14 -28 31 -46 40 -43 49 -61 49 -103 0 -19 4 -37 10 -41 5 -3 7 -12
4 -20 -3 -7 -1 -23 6 -34 9 -17 8 -21 -5 -21 -18 0 -20 -31 -3 -48 7 -7 8 -12
4 -12 -5 0 -3 -7 4 -15 7 -8 16 -12 21 -9 5 3 10 -39 10 -93 3 -185 0 -202
-42 -290 -21 -46 -39 -87 -39 -93 0 -17 -67 -145 -83 -158 -13 -11 4 63 48
209 27 86 49 257 38 292 -10 29 -11 26 -11 -33 -1 -92 -72 -364 -120 -459 -41
-81 -101 -156 -134 -167 -12 -3 -26 -10 -32 -15 -6 -5 -22 -18 -35 -29 -13
-11 -34 -20 -46 -20 -12 0 -42 -7 -65 -15 -54 -19 -94 -19 -135 1 -37 17 -49
42 -45 94 3 42 46 86 94 95 54 11 136 40 136 48 0 4 -4 7 -9 7 -13 0 -19 48
-8 59 15 15 13 14 -77 -14 -81 -26 -160 -33 -171 -15 -4 6 8 10 29 10 34 0 42
9 37 43 0 4 4 7 10 7 6 0 8 -7 5 -17 -6 -14 -3 -14 16 4 13 11 34 24 48 28 14
4 50 21 81 37 34 16 65 26 75 22 15 -5 16 -4 4 5 -12 8 -11 11 5 17 11 4 23
12 27 18 5 7 8 3 8 -9 1 -19 1 -19 11 -1 9 14 8 20 -2 27 -12 7 -11 9 1 10 8
1 18 1 23 0 4 0 7 5 7 12 1 15 66 87 80 87 5 0 21 -5 35 -12 21 -9 25 -18 26
-52 l1 -41 14 50 c7 28 14 61 14 74 0 14 5 38 11 55 9 26 7 39 -10 77 -30 66
-87 89 -220 88 -82 0 -85 -1 -51 -14 36 -13 32 -18 -20 -28 -20 -5 -29 1 -45
26 -11 18 -29 33 -40 35 -19 4 -19 3 3 -17 42 -40 27 -69 -48 -96 -23 -8 -60
-31 -82 -50 -33 -30 -44 -35 -71 -30 -64 12 -72 13 -84 14 -6 1 -17 17 -23 36
-10 32 -9 41 14 85 22 41 26 63 26 128 0 73 -2 82 -29 116 -18 23 -27 44 -24
53 4 11 2 14 -5 9 -8 -5 -12 0 -12 14 0 12 -4 18 -10 15 -5 -3 -10 0 -10 8 0
14 -35 12 -115 -7 -17 -4 -25 -4 -18 1 6 4 14 25 18 46 5 23 16 44 30 53 13 8
26 22 29 30 4 11 -4 9 -34 -6 -51 -26 -60 -25 -60 6 0 14 3 23 8 21 4 -3 18
13 32 34 13 21 30 39 38 39 7 0 11 4 8 8 -2 4 15 14 39 21 25 7 43 18 42 24
-1 6 12 14 28 17 17 3 41 12 55 21 21 14 74 29 185 52 11 3 72 5 136 6 107 1
121 -1 160 -24z m-901 -14 c0 -6 -4 -13 -10 -16 -5 -3 -10 1 -10 9 0 9 5 16
10 16 6 0 10 -4 10 -9z m-1075 -75 c43 -18 66 -53 68 -106 1 -36 -3 -46 -31
-71 -69 -62 -177 -24 -189 66 -4 35 -1 46 23 74 43 51 74 60 129 37z m3638 0
c42 -17 67 -56 67 -103 0 -132 -201 -149 -225 -19 -9 46 18 94 65 118 42 22
51 22 93 4z m-1093 -196 c46 -25 96 -195 85 -294 -16 -143 -76 -256 -136 -256
-38 0 -59 33 -79 125 -10 50 -25 111 -33 136 -14 42 -13 53 4 130 18 76 24 88
65 127 48 44 63 49 94 32z m-1148 -180 c6 0 8 -7 4 -15 -3 -8 -2 -15 2 -15 5
0 16 -6 25 -12 15 -11 7 -12 -45 -9 -54 3 -60 5 -45 16 14 10 15 14 5 18 -18
7 12 29 30 22 8 -3 18 -5 24 -5z m8 -84 c0 -9 7 -12 19 -9 29 7 36 -16 13 -46
-13 -17 -18 -37 -15 -53 3 -17 -4 -39 -22 -67 -19 -28 -26 -49 -23 -70 4 -29
-3 -38 -37 -46 -5 -2 -17 -4 -25 -6 -8 -2 -22 -13 -32 -24 -15 -17 -17 -18
-18 -3 0 9 6 19 13 22 6 3 3 4 -7 3 -18 -2 -19 4 -17 58 2 38 8 67 19 78 12
14 13 17 1 13 -8 -2 -26 -7 -41 -10 -77 -17 -77 -182 0 -269 9 -10 17 -39 18
-66 3 -68 31 -114 119 -201 69 -68 104 -110 91 -110 -3 0 -46 34 -95 74 -73
62 -95 86 -120 138 -17 35 -35 86 -40 113 -6 28 -19 68 -31 90 -43 83 -15 255
46 286 48 24 91 63 86 79 -3 13 -2 13 6 1 15 -21 78 -2 74 22 -2 9 2 17 8 17
5 0 10 -6 10 -14z m-210 -91 c-13 -16 -15 -16 -21 2 -4 10 -8 27 -8 38 -1 19
0 19 21 -2 18 -19 19 -24 8 -38z m-63 -37 c-3 -7 -5 -2 -5 12 0 14 2 19 5 13
2 -7 2 -19 0 -25z m813 -223 c0 -14 -6 -25 -13 -25 -8 0 -22 -9 -32 -20 -10
-11 -29 -20 -42 -20 -14 0 -23 -6 -23 -15 0 -9 -12 -18 -30 -21 -16 -4 -30
-10 -30 -14 0 -11 -60 -34 -84 -32 -11 0 -25 -3 -31 -8 -17 -14 -108 -10 -134
7 l-23 15 24 12 c14 7 42 16 64 20 21 4 52 15 69 24 16 8 37 16 45 17 29 3 60
16 60 26 0 5 13 9 29 9 16 0 34 7 41 15 7 8 23 15 36 15 12 0 26 5 29 10 3 6
15 10 26 10 14 0 19 -7 19 -25z m478 -200 l-4 -91 -49 -48 c-55 -52 -85 -73
-85 -57 0 5 16 45 36 88 19 43 45 105 56 138 11 33 26 69 31 80 11 20 11 20
15 1 2 -11 2 -61 0 -111z m95 7 c12 -13 18 -41 19 -99 2 -49 7 -79 13 -77 6 3
25 -22 42 -53 18 -32 33 -50 33 -40 0 9 4 17 9 17 21 0 167 -50 185 -63 18
-13 15 -15 -33 -32 -28 -11 -51 -23 -51 -27 0 -11 1 -10 50 7 59 21 140 20
140 -1 0 -24 -56 -160 -97 -234 -87 -160 -241 -325 -394 -423 -55 -35 -56 -35
-130 -27 -41 5 -193 14 -339 20 -249 11 -534 5 -750 -17 -53 -5 -58 -3 -130
45 -61 41 -237 209 -286 274 -26 33 -64 98 -64 109 0 6 60 39 133 74 138 66
358 140 441 149 31 3 56 13 68 26 10 11 20 20 22 20 2 0 -2 -21 -10 -47 -19
-63 -18 -84 10 -152 27 -66 23 -82 -20 -80 -41 3 -72 -9 -85 -33 -9 -17 -13
-18 -20 -7 -7 12 -9 12 -10 -1 -1 -8 -5 -1 -9 15 -6 21 -6 17 -3 -15 7 -56 7
-49 -2 -210 -5 -97 -4 -131 4 -120 6 8 11 33 11 55 0 56 34 215 54 253 19 37
29 38 141 16 108 -22 353 -22 460 -1 98 20 234 66 312 106 32 17 55 30 51 31
-4 0 -54 -18 -111 -39 -107 -41 -249 -81 -286 -81 -28 0 -27 17 9 125 28 83
33 92 74 118 24 15 46 27 50 27 22 0 276 137 337 182 123 91 157 145 126 200
-15 26 -15 28 2 28 10 0 25 -8 34 -18z m-1101 -63 c21 -30 38 -66 38 -82 0
-17 24 -65 61 -122 65 -99 89 -118 168 -131 23 -4 39 -10 34 -15 -13 -13 -116
11 -154 36 -27 18 -43 41 -69 101 -24 56 -50 96 -90 139 -83 88 -102 115 -90
130 21 25 63 1 102 -56z m62 -313 c3 -29 18 -93 32 -142 40 -135 40 -134 13
-134 -35 0 -69 11 -69 22 0 5 -14 42 -31 81 -29 65 -31 74 -19 107 26 71 50
120 58 120 5 0 12 -24 16 -54z m36 -36 c0 -5 -2 -10 -4 -10 -3 0 -8 5 -11 10
-3 6 -1 10 4 10 6 0 11 -4 11 -10z m-1510 -495 c84 -44 77 -164 -11 -199 -40
-16 -46 -16 -86 -1 -67 26 -91 91 -58 155 30 58 94 77 155 45z m3682 -26 c64
-76 19 -179 -77 -179 -87 0 -134 49 -122 126 11 66 54 96 127 90 36 -3 50 -11
72 -37z m-3357 -69 c188 -29 296 -52 348 -73 53 -22 97 -49 52 -33 -71 26
-309 76 -410 86 -66 6 -144 14 -172 16 -29 3 -53 10 -53 16 0 11 128 5 235
-12z m3119 11 c8 -13 -30 -21 -99 -21 -126 0 -359 -42 -526 -94 -52 -16 -88
-6 -42 12 15 6 42 14 58 18 17 4 35 11 41 16 7 5 25 10 40 13 16 2 83 13 149
25 170 31 369 47 379 31z m-1131 -102 c104 -10 228 -26 275 -34 186 -34 385
-76 440 -94 179 -59 258 -97 255 -122 -2 -20 -100 -370 -150 -535 l-25 -82
-41 24 c-23 13 -59 29 -81 35 -21 6 -35 13 -32 16 3 3 35 -4 72 -17 36 -12 69
-18 74 -13 4 4 17 44 28 88 19 73 71 267 105 390 32 115 36 102 -45 140 -74
35 -124 51 -278 86 -97 22 -287 55 -375 64 -33 3 -82 10 -110 15 -27 6 -160
17 -295 26 -458 31 -897 9 -1322 -66 -158 -28 -191 -35 -300 -66 -135 -39
-221 -82 -226 -114 -2 -11 8 -58 22 -103 14 -45 48 -167 74 -270 27 -103 52
-191 56 -194 4 -4 21 -1 39 6 100 41 212 71 320 86 59 9 114 18 121 21 8 3 17
1 20 -4 3 -5 -15 -13 -42 -16 -174 -23 -386 -83 -439 -122 -39 -30 -43 -30
-43 1 0 27 -13 78 -65 255 -45 151 -95 338 -95 355 0 19 157 92 245 114 44 11
127 31 185 45 452 104 1107 138 1633 85z m-46 -50 c34 -17 43 -26 41 -43 -3
-23 -41 -33 -85 -22 -31 8 -51 49 -33 71 16 20 25 19 77 -6z m-314 -56 c24 -3
52 -19 73 -38 28 -27 34 -40 34 -74 0 -58 -24 -100 -67 -118 l-36 -15 26 -21
c15 -12 38 -47 51 -77 13 -30 34 -63 46 -73 34 -29 20 -42 -49 -45 -83 -4
-103 10 -149 106 -28 58 -42 78 -59 80 -21 3 -23 0 -23 -49 0 -46 4 -56 27
-75 17 -14 24 -26 20 -37 -5 -14 -23 -17 -117 -17 -108 0 -110 1 -110 23 0 12
9 28 20 35 19 11 20 23 20 167 0 154 0 155 -25 171 -24 16 -33 43 -18 57 8 9
285 9 336 0z m-409 -12 c3 -4 8 -34 12 -65 7 -55 6 -56 -19 -56 -17 0 -33 10
-47 30 -19 27 -27 30 -76 30 -64 0 -71 -10 -58 -79 8 -40 13 -46 36 -49 20 -2
31 4 44 22 18 29 49 34 58 10 3 -9 6 -45 6 -80 0 -62 -1 -64 -25 -64 -14 0
-25 4 -25 9 0 18 -32 41 -56 41 -22 0 -24 -4 -24 -51 0 -69 12 -89 55 -89 49
0 84 16 97 45 8 18 19 25 40 25 32 0 35 -14 17 -84 l-11 -43 -116 -6 c-64 -4
-147 -10 -184 -13 -68 -7 -68 -7 -68 18 0 15 9 31 21 39 20 14 20 17 9 159
-13 150 -20 180 -45 180 -10 0 -15 10 -15 29 l0 29 123 9 c166 13 245 15 251
4z m796 -30 c29 -6 35 -11 35 -31 0 -17 -6 -26 -20 -28 -11 -2 -23 -7 -27 -10
-3 -4 -12 -74 -18 -156 l-12 -149 28 -22 c19 -15 25 -27 21 -39 -6 -16 -17
-17 -99 -10 -51 4 -103 10 -115 15 -30 11 -29 37 2 51 28 13 31 28 41 210 6
111 5 117 -15 128 -13 6 -21 21 -21 36 l0 25 83 -6 c45 -4 98 -10 117 -14z
m-1255 -23 c3 -13 6 -41 8 -63 2 -35 -1 -40 -21 -43 -15 -2 -32 7 -51 27 -23
24 -37 31 -68 31 -66 0 -107 -48 -69 -79 8 -7 45 -17 83 -22 113 -16 142 -27
164 -62 15 -24 19 -44 16 -85 -4 -59 -34 -99 -99 -133 l-37 -19 24 -25 c31
-30 31 -40 0 -61 -26 -17 -65 -11 -65 10 0 7 -9 25 -21 40 -18 23 -27 26 -85
26 -74 0 -78 4 -79 85 0 62 22 71 63 25 16 -17 42 -34 58 -39 56 -15 124 15
124 56 0 23 -44 42 -122 51 -98 13 -139 35 -157 88 -20 56 -8 106 35 149 44
44 107 63 211 64 78 1 83 0 88 -21z m1565 -18 c177 -31 161 -21 158 -93 -3
-61 -3 -62 -33 -62 -24 0 -31 5 -38 32 -11 35 -22 42 -85 53 -40 7 -44 5 -53
-18 -6 -14 -9 -44 -7 -66 3 -38 5 -41 35 -44 24 -2 34 2 43 18 7 14 19 20 33
18 24 -3 27 -28 13 -120 -6 -43 -10 -48 -32 -48 -19 0 -28 7 -36 30 -10 30
-46 49 -67 35 -6 -3 -11 -33 -11 -65 0 -50 3 -60 20 -65 21 -7 25 -22 12 -43
-7 -10 -29 -9 -113 4 -57 9 -107 21 -111 27 -10 16 2 38 27 47 18 7 23 19 28
72 4 35 11 104 17 153 10 85 10 91 -10 107 -43 35 -18 69 43 57 23 -4 98 -17
167 -29z m-2460 -130 c0 -12 -20 -21 -102 -44 -32 -10 -58 -21 -58 -27 0 -5
13 -35 29 -67 15 -31 40 -87 55 -124 l27 -68 -16 -126 c-9 -70 -13 -129 -11
-132 3 -2 39 3 81 13 41 10 78 16 81 13 3 -3 -40 -20 -96 -38 -56 -18 -103
-30 -105 -29 -1 2 4 72 12 154 17 170 26 129 -67 329 -22 49 -39 94 -37 100 4
12 138 53 180 55 15 1 27 -4 27 -9z m3281 -11 c49 -11 92 -25 95 -31 3 -5 -22
-72 -56 -149 l-62 -139 11 -78 c5 -42 13 -110 17 -151 6 -70 6 -74 -12 -68
-48 15 -163 48 -203 58 -30 7 -40 14 -33 21 7 7 17 6 33 -3 13 -7 29 -14 34
-15 6 -1 38 -9 73 -17 56 -13 64 -13 69 0 3 8 -2 70 -11 137 -20 134 -23 113
42 256 24 55 52 121 52 126 0 2 -38 15 -85 29 -144 44 -119 61 36 24z m-1101
-364 c74 -8 171 -20 215 -25 179 -20 355 -55 355 -70 0 -4 -53 3 -117 15 -159
30 -344 53 -543 67 -180 13 -980 17 -1125 6 -60 -5 -80 -4 -60 2 105 32 1016
36 1275 5z m-1551 -200 c12 -49 9 -65 -14 -65 -18 0 -27 15 -35 62 -6 30 -4
40 9 47 22 13 27 7 40 -44z m1940 36 c24 -16 -16 -91 -49 -91 -6 0 -8 -5 -4
-12 5 -7 2 -9 -9 -5 -8 3 -20 0 -26 -7 -10 -12 -82 -44 -251 -110 -36 -14
-169 -60 -296 -102 -230 -77 -232 -77 -247 -113 -41 -91 -182 -95 -224 -6 -20
43 -29 47 -243 117 -244 80 -610 228 -563 228 6 0 73 -20 150 -44 126 -41 198
-61 537 -156 60 -16 110 -29 111 -27 1 1 11 18 23 38 41 68 127 77 176 18 14
-17 26 -37 26 -45 0 -8 3 -14 7 -14 14 0 385 104 540 151 276 84 282 87 298
157 7 32 19 39 44 23z"/>
<path d="M2895 4320 c-3 -5 1 -10 9 -10 9 0 16 5 16 10 0 6 -4 10 -9 10 -6 0
-13 -4 -16 -10z"/>
<path d="M3706 3718 c-22 -31 -20 -54 6 -72 32 -22 64 -20 82 6 20 28 20 39 0
64 -15 19 -15 19 -9 -2 8 -30 -17 -49 -44 -34 -24 12 -27 30 -9 48 9 9 9 12 1
12 -7 0 -19 -10 -27 -22z"/>
<path d="M3607 3658 c64 -85 161 -257 203 -361 33 -85 38 -61 5 30 -34 95
-126 259 -171 307 -32 34 -57 50 -37 24z"/>
<path d="M3975 3598 c-4 -15 -4 -32 0 -37 8 -15 3 -14 -115 9 -56 12 -105 19
-108 16 -2 -3 1 -8 9 -10 84 -28 194 -68 196 -70 2 -1 -15 -45 -37 -96 -69
-161 -40 -137 54 45 22 41 47 76 64 86 18 10 28 25 30 45 2 26 1 27 -11 12
-20 -25 -56 -23 -66 5 -9 22 -9 22 -16 -5z"/>
<path d="M3933 3280 c-65 -26 -50 -120 20 -120 52 0 78 84 35 114 -25 18 -25
18 -55 6z m62 -20 c8 -13 -13 -50 -29 -50 -20 0 -39 27 -32 45 6 17 51 21 61
5z"/>
<path d="M3915 2315 c-3 -8 -7 -21 -9 -27 -14 -48 57 -87 95 -52 20 18 24 40
12 71 -6 16 -8 15 -13 -7 -8 -34 -47 -40 -59 -8 -5 13 -7 26 -4 31 2 4 -1 7
-7 7 -6 0 -13 -7 -15 -15z"/>
<path d="M3880 2214 c0 -11 53 -159 70 -196 18 -38 7 -58 -32 -58 -39 -1 -186
-34 -196 -45 -4 -4 7 -4 23 0 17 4 84 15 149 24 74 10 121 21 124 29 2 6 -12
40 -31 75 -19 34 -47 85 -62 112 -29 54 -45 75 -45 59z"/>
<path d="M1383 3715 c3 -38 -29 -57 -49 -30 -8 11 -12 26 -9 35 3 9 -1 7 -10
-5 -23 -29 -15 -67 17 -83 23 -11 31 -10 53 4 29 19 43 60 28 82 -17 27 -32
25 -30 -3z"/>
<path d="M1518 3692 c-69 -74 -130 -161 -165 -238 -62 -135 -74 -166 -70 -177
2 -6 11 9 21 34 39 98 183 336 244 402 14 15 23 27 20 27 -3 0 -26 -22 -50
-48z"/>
<path d="M1112 3600 c-15 -24 -30 -25 -54 -3 -17 15 -18 15 -18 -9 0 -24 26
-58 46 -58 5 -1 43 -64 84 -140 41 -77 77 -135 78 -130 4 12 -7 45 -50 140
-46 100 -44 109 27 137 33 13 77 26 97 29 21 4 43 13 49 20 15 18 9 17 -80 -6
-40 -11 -95 -23 -122 -26 l-50 -7 12 27 c16 33 -1 55 -19 26z"/>
<path d="M1175 3266 c23 -17 13 -46 -16 -46 -12 0 -28 8 -35 18 -12 15 -13 14
-14 -15 0 -59 63 -86 94 -41 22 32 20 64 -6 82 -27 19 -49 21 -23 2z"/>
<path d="M1170 2307 c0 -30 -21 -50 -44 -41 -14 5 -21 23 -17 47 0 4 -3 7 -8
7 -5 0 -11 -14 -15 -32 -11 -57 42 -87 92 -52 26 18 30 65 7 84 -13 11 -15 9
-15 -13z"/>
<path d="M1214 2218 c-35 -70 -107 -203 -115 -213 -4 -5 -9 -18 -11 -29 -3
-21 -1 -22 110 -30 82 -7 75 6 -10 18 -27 4 -48 10 -48 14 0 4 13 39 29 77 33
83 71 195 66 195 -3 0 -12 -15 -21 -32z"/>
<path d="M1288 1933 c6 -2 18 -2 25 0 6 3 1 5 -13 5 -14 0 -19 -2 -12 -5z"/>
<path d="M1345 1920 c11 -5 27 -9 35 -9 13 -1 13 0 0 9 -8 5 -24 9 -35 9 l-20
0 20 -9z"/>
<path d="M2822 3780 c0 -14 2 -19 5 -12 2 6 2 18 0 25 -3 6 -5 1 -5 -13z"/>
<path d="M2550 3680 c-107 -11 -179 -47 -180 -88 0 -13 -4 -20 -10 -17 -18 11
-10 -15 11 -36 16 -16 28 -19 54 -15 l33 7 -9 -38 c-11 -50 -11 -86 0 -78 6 3
15 -4 21 -15 11 -20 11 -20 45 7 21 16 30 30 23 34 -6 4 -4 10 8 17 14 8 21 6
30 -6 10 -14 17 -14 73 2 62 17 98 16 86 -4 -3 -5 -3 -10 2 -10 11 0 40 20 29
20 -5 0 -3 6 3 13 21 27 -28 55 -109 63 -34 3 -35 3 -5 -5 26 -8 24 -9 -23
-10 -35 -1 -51 3 -47 10 5 7 -5 8 -29 4 -42 -8 -45 -1 -13 25 33 28 94 34 147
15 25 -9 71 -19 104 -22 l59 -6 -7 29 c-9 34 -24 54 -41 54 -6 0 -20 9 -29 19
-19 21 -89 42 -133 39 -15 0 -57 -4 -93 -8z"/>
<path d="M2831 3654 c-1 -14 44 -56 52 -48 11 11 -5 34 -23 34 -10 0 -21 6
-23 13 -3 6 -6 7 -6 1z"/>
<path d="M2860 3545 c-14 -16 -3 -20 19 -6 8 5 9 11 3 15 -5 3 -15 -1 -22 -9z"/>
<path d="M2919 3516 c-3 -3 -20 -8 -39 -11 -49 -9 -53 -19 -5 -12 22 4 50 7
63 7 12 0 22 5 22 10 0 10 -32 14 -41 6z"/>
<path d="M2795 3480 c-8 -14 8 -18 90 -25 39 -3 86 -8 105 -11 33 -6 34 -5 15
10 -14 11 -42 15 -92 16 -39 0 -75 5 -78 10 -8 13 -32 13 -40 0z"/>
<path d="M2695 3410 c-58 -22 -98 -25 -124 -8 -15 9 -24 8 -46 -6 -22 -14 -25
-20 -14 -27 27 -17 115 -9 187 16 39 14 91 25 114 26 37 1 39 2 18 9 -40 13
-81 10 -135 -10z"/>
<path d="M670 3656 c0 -17 38 -43 71 -47 31 -4 79 25 79 49 0 10 -3 13 -8 7
-17 -23 -88 -30 -117 -11 -20 13 -25 14 -25 2z"/>
<path d="M4338 3623 c12 -2 32 -2 45 0 12 2 2 4 -23 4 -25 0 -35 -2 -22 -4z"/>
<path d="M3286 3555 c-33 -35 -84 -135 -87 -171 -2 -20 4 -40 19 -58 25 -33
25 -31 12 -76 -14 -49 3 -62 36 -27 13 15 29 28 34 28 6 1 16 2 23 3 21 2 20
55 -1 74 -10 9 -27 36 -37 60 -17 39 -17 44 -3 58 28 28 61 -4 91 -86 4 -10 6
-8 6 7 1 12 -4 34 -10 50 -6 15 -13 55 -15 87 -5 79 -27 95 -68 51z"/>
<path d="M2103 3243 c9 -2 23 -2 30 0 6 3 -1 5 -18 5 -16 0 -22 -2 -12 -5z"/>
<path d="M2040 3225 c-14 -8 -20 -14 -15 -14 6 0 21 6 35 14 14 8 21 14 15 14
-5 0 -21 -6 -35 -14z"/>
<path d="M3330 2399 c0 -5 -31 -57 -70 -115 -38 -57 -68 -104 -65 -104 8 0
113 147 134 189 12 22 17 41 11 41 -5 0 -10 -5 -10 -11z"/>
<path d="M2061 2294 c0 -11 3 -14 6 -6 3 7 2 16 -1 19 -3 4 -6 -2 -5 -13z"/>
<path d="M2046 2244 c-9 -24 -7 -66 3 -60 11 7 20 76 10 76 -4 0 -10 -7 -13
-16z"/>
<path d="M1804 2226 c-79 -41 -216 -156 -186 -156 25 0 136 77 200 139 26 25
42 46 30 40 -2 -1 -21 -11 -44 -23z"/>
<path d="M2933 2045 c0 -27 2 -38 4 -22 2 15 2 37 0 50 -2 12 -4 0 -4 -28z"/>
<path d="M2805 2043 c49 -12 58 -44 24 -87 -25 -32 -64 -49 -90 -41 -31 10
-25 62 12 96 17 16 27 29 21 29 -17 0 -72 -70 -72 -91 0 -68 69 -82 126 -25
54 54 45 128 -15 125 -21 -1 -22 -2 -6 -6z"/>
<path d="M2158 2029 c-10 -5 -23 -20 -30 -32 -9 -17 -5 -16 20 8 40 38 42 43
10 24z"/>
<path d="M2239 2028 c31 -40 -38 -116 -95 -105 -31 5 -31 -10 -1 -24 32 -15
73 3 97 43 25 41 25 71 3 89 -16 13 -17 12 -4 -3z"/>
<path d="M2906 1924 c-10 -31 -15 -58 -13 -61 3 -2 13 21 22 52 21 74 14 82
-9 9z"/>
<path d="M810 1796 c0 -9 5 -16 10 -16 6 0 10 4 10 9 0 6 -4 13 -10 16 -5 3
-10 -1 -10 -9z"/>
<path d="M785 1754 c-11 -8 -38 -14 -60 -14 -58 3 -60 2 -40 -20 35 -39 125
-14 125 35 0 18 0 18 -25 -1z"/>
<path d="M4290 1798 c0 -25 12 -58 20 -53 9 6 1 53 -11 61 -5 3 -9 -1 -9 -8z"/>
<path d="M4435 1743 c-14 -10 -33 -13 -67 -8 -51 6 -64 -6 -27 -26 28 -14 82
-4 104 21 23 25 17 33 -10 13z"/>
<path d="M2590 1460 c0 -79 0 -80 25 -80 82 0 124 82 70 135 -16 17 -35 25
-60 25 l-35 0 0 -80z"/>
<path d="M2632 489 c-14 -22 -7 -25 14 -5 8 8 11 17 6 20 -4 2 -13 -4 -20 -15z"/>
<path d="M2453 465 c1 -33 11 -47 19 -25 2 7 14 7 36 -1 18 -6 36 -9 39 -5 4
3 -1 6 -10 6 -9 0 -32 14 -51 30 l-34 30 1 -35z"/>
<path d="M2614 390 c-6 -6 -30 -14 -55 -19 l-44 -9 41 -1 c29 -1 46 5 59 19
18 20 17 28 -1 10z"/>
</g>
</svg>
